<svg xmlns="http://www.w3.org/2000/svg" xmlns:xlink="http://www.w3.org/1999/xlink" width="37" height="37" viewBox="0 0 37 37">
  <defs>
    <clipPath id="clip-path">
      <rect id="長方形_555" data-name="長方形 555" width="10.617" height="3.267" fill="none" stroke="#5d5d5d" stroke-width="1.5"/>
    </clipPath>
  </defs>
  <g id="グループ_5149" data-name="グループ 5149" transform="translate(-312 -8)">
    <rect id="長方形_557" data-name="長方形 557" width="37" height="37" transform="translate(312 8)" fill="none"/>
    <g id="グループ_5065" data-name="グループ 5065" transform="translate(321.136 13.823)">
      <g id="グループ_5047" data-name="グループ 5047" transform="translate(-0.256)">
        <path id="パス_9878" data-name="パス 9878" d="M16.8,9.929s.329-5.521-4.988-6.819c0,0-.206-2.814-2.131-2.6S7.37,1.865,7.425,2.947c0,0-5.92.433-4.988,10.283A9.243,9.243,0,0,0,.463,16.369a6.725,6.725,0,0,0,0,3.356H18.992a6.474,6.474,0,0,0,0-3.085,6.812,6.812,0,0,0-1.755-2.6" transform="translate(-0.244 -0.5)" fill="none" stroke="#5d5d5d" stroke-linecap="round" stroke-linejoin="round" stroke-miterlimit="10" stroke-width="1.5"/>
        <g id="マスクグループ_4" data-name="マスクグループ 4" transform="translate(4.303 21.386)" clip-path="url(#clip-path)">
          <g id="楕円形_93" data-name="楕円形 93" transform="translate(1.633 -4.084)" fill="none" stroke="#5d5d5d" stroke-width="1.5">
            <circle cx="3.675" cy="3.675" r="3.675" stroke="none"/>
            <circle cx="3.675" cy="3.675" r="2.925" fill="none"/>
          </g>
        </g>
      </g>
    </g>
  </g>
</svg>
