<svg xmlns="http://www.w3.org/2000/svg" xmlns:xlink="http://www.w3.org/1999/xlink" width="28" height="28" viewBox="0 0 28 28">
  <defs>
    <clipPath id="clip-path">
      <rect id="長方形_549" data-name="長方形 549" width="28" height="28" fill="#fff"/>
    </clipPath>
  </defs>
  <g id="グループ_5094" data-name="グループ 5094" clip-path="url(#clip-path)">
    <path id="前面オブジェクトで型抜き_1" data-name="前面オブジェクトで型抜き 1" d="M13.994,28A14,14,0,0,1,4.251,3.953,13.936,13.936,0,0,1,14.008,0h.159A13.967,13.967,0,0,1,28,14.314v.044a6.736,6.736,0,0,1-2.25,4.843A6.588,6.588,0,0,1,21.3,20.9c-.206,0-.415-.01-.622-.028a14.345,14.345,0,0,1-2.156-.373,2.089,2.089,0,0,0-.5-.064,1.93,1.93,0,0,0-1.6.889,1.909,1.909,0,0,0,.071,2.253l.053.069a2.675,2.675,0,0,1-1.989,4.341L14.387,28C14.265,28,14.137,28,13.994,28ZM6.712,16.084A2.835,2.835,0,1,0,9.547,18.92,2.839,2.839,0,0,0,6.712,16.084ZM5.583,8.945a2.836,2.836,0,1,0,2.836,2.836A2.839,2.839,0,0,0,5.583,8.945ZM22.55,7.792a2.836,2.836,0,1,0,2.785,3.375.546.546,0,0,0-.433-.64.553.553,0,0,0-.106-.01.547.547,0,0,0-.536.443A1.742,1.742,0,0,1,22.55,12.37a1.742,1.742,0,1,1,0-3.483h.113A.547.547,0,0,0,22.686,7.8h-.043ZM10.392,3.106a2.835,2.835,0,1,0,2.836,2.835A2.839,2.839,0,0,0,10.392,3.106Zm7.075-.512A2.836,2.836,0,1,0,20.3,5.431,2.839,2.839,0,0,0,17.467,2.595ZM6.712,20.661A1.742,1.742,0,1,1,8.454,18.92,1.744,1.744,0,0,1,6.712,20.661ZM5.583,13.523a1.742,1.742,0,1,1,1.742-1.742A1.743,1.743,0,0,1,5.583,13.523Zm4.809-5.84a1.742,1.742,0,1,1,1.742-1.742A1.744,1.744,0,0,1,10.392,7.683Zm7.075-.511a1.742,1.742,0,1,1,1.741-1.742A1.744,1.744,0,0,1,17.467,7.173Z" transform="translate(0 0)" fill="#fff"/>
  </g>
</svg>
