<svg xmlns="http://www.w3.org/2000/svg" xmlns:xlink="http://www.w3.org/1999/xlink" width="28" height="28" viewBox="0 0 28 28">
  <defs>
    <clipPath id="clip-path">
      <rect id="長方形_549" data-name="長方形 549" width="28" height="28" fill="#fff"/>
    </clipPath>
  </defs>
  <g id="グループ_5094" data-name="グループ 5094" clip-path="url(#clip-path)">
    <g id="グループ_10342" data-name="グループ 10342" transform="translate(-152.215 -1781.658)">
      <rect id="長方形_3590" data-name="長方形 3590" width="18" height="9" transform="translate(157.215 1786.658)" fill="#fff"/>
      <path id="パス_30286" data-name="パス 30286" d="M199.285,1798.809H178.227a.553.553,0,0,1-.562-.543v-11.407a1.383,1.383,0,0,1,1.4-1.358h19.374a1.383,1.383,0,0,1,1.4,1.358v11.407A.553.553,0,0,1,199.285,1798.809Zm-20.5-1.087h19.935v-10.864a.28.28,0,0,0-.281-.271H179.069a.28.28,0,0,0-.281.271Z" transform="translate(-22.541 -0.878)" fill="#fff"/>
      <path id="パス_30287" data-name="パス 30287" d="M156.684,1905.5h20.581a.548.548,0,0,1,.5.329l2.47,5.521a.582.582,0,0,1-.036.543.545.545,0,0,1-.462.261h-25.52a.545.545,0,0,1-.462-.261.582.582,0,0,1-.036-.543l2.47-5.521A.548.548,0,0,1,156.684,1905.5Zm20.229,1.133H157.035l-1.963,4.388h23.8Z" transform="translate(-0.759 -108.678)" fill="#fff"/>
      <path id="パス_30288" data-name="パス 30288" d="M178.911,1960.827H155.037c-.757,0-1.372-.878-1.372-1.957v-.587c0-.433.246-.783.549-.783s.549.351.549.783v1.189c0,.216.123.391.274.391h23.874c.151,0,.274-.175.274-.391v-1.189c0-.433.246-.783.549-.783s.549.351.549.783v.587C180.283,1959.949,179.668,1960.827,178.911,1960.827Z" transform="translate(-0.759 -155.133)" fill="#fff"/>
      <path id="パス_30289" data-name="パス 30289" d="M249.965,1941.937a.6.6,0,0,1-.54-.475l-.724-2.54h-5.2l-.724,2.54a.552.552,0,0,1-.731.433.766.766,0,0,1-.349-.908l.859-3.014a.6.6,0,0,1,.54-.474h6.01a.6.6,0,0,1,.54.474l.859,3.014a.766.766,0,0,1-.349.908A.472.472,0,0,1,249.965,1941.937Z" transform="translate(-79.886 -138.46)" fill="#fff"/>
    </g>
  </g>
</svg>
