<svg xmlns="http://www.w3.org/2000/svg" xmlns:xlink="http://www.w3.org/1999/xlink" width="28" height="28" viewBox="0 0 28 28">
  <defs>
    <clipPath id="clip-path">
      <rect id="長方形_549" data-name="長方形 549" width="28" height="28" fill="#fff"/>
    </clipPath>
  </defs>
  <g id="グループ_5094" data-name="グループ 5094" clip-path="url(#clip-path)">
    <g id="グループ_10332" data-name="グループ 10332" transform="translate(1.63 0.817)">
      <path id="パス_10044" data-name="パス 10044" d="M429.788,387.824c-8.907-9.208-23.613-1.641-21.611,10.987.007.128.563,6.6.695,8.161a2.4,2.4,0,0,0,2.584,2.181h0a.694.694,0,0,0,.63-.748l-.7-8.227a.7.7,0,0,0-.749-.632,2.377,2.377,0,0,0-1.2.447l-.107-1.259c-.005-.1,0-.73-.011-.937a11.229,11.229,0,0,1,22.455,0c-.006.207-.005.833-.011.937l-.107,1.259a2.377,2.377,0,0,0-1.2-.447.693.693,0,0,0-.748.632l-.7,8.226a.694.694,0,0,0,.63.749h0a2.4,2.4,0,0,0,2.584-2.181c.13-1.546.688-8.033.695-8.161A12.993,12.993,0,0,0,429.788,387.824Z" transform="translate(-407.992 -383.747)" fill="#fff"/>
      <path id="パス_10045" data-name="パス 10045" d="M1090.543,1014.263a1.491,1.491,0,0,0-1.021-.528l-.9-.077a2.409,2.409,0,0,0-2.6,2.2l-.593,7a2.412,2.412,0,0,0,2.2,2.6l.9.076a1.508,1.508,0,0,0,1.623-1.369l.746-8.808A1.492,1.492,0,0,0,1090.543,1014.263Z" transform="translate(-1069.848 -999.177)" fill="#fff"/>
      <path id="パス_10046" data-name="パス 10046" d="M589.927,1015.714a2.421,2.421,0,0,0-2.6-2.2l-.9.077a1.5,1.5,0,0,0-1.37,1.623l.746,8.808a1.509,1.509,0,0,0,1.494,1.375c.051.009.956-.079,1.034-.082a2.421,2.421,0,0,0,2.2-2.6Z" transform="translate(-580.975 -999.036)" fill="#fff"/>
    </g>
  </g>
</svg>
