<svg xmlns="http://www.w3.org/2000/svg" xmlns:xlink="http://www.w3.org/1999/xlink" width="28" height="28" viewBox="0 0 28 28">
  <defs>
    <clipPath id="clip-path">
      <rect id="長方形_549" data-name="長方形 549" width="28" height="28" fill="#fff"/>
    </clipPath>
  </defs>
  <g id="グループ_5094" data-name="グループ 5094" clip-path="url(#clip-path)">
    <g id="グループ_10336" data-name="グループ 10336" transform="translate(-197.891 -936.745)">
      <path id="合体_15" data-name="合体 15" d="M13.195,8.083.336,3.219a.526.526,0,0,1,0-.98L3.556,1.007a.52.52,0,0,1,.124-.03l2.232-.9,7.874,2.639L20.91,0l2.421,1.048,3.116,1.191a.526.526,0,0,1,0,.98L13.556,8.083a.512.512,0,0,1-.361,0Z" transform="translate(198.5 952.369)" fill="#fff"/>
      <path id="合体_14" data-name="合体 14" d="M13.194,10.518.335,5.752a.507.507,0,0,1,0-.954L13.194.033a.524.524,0,0,1,.363,0L26.447,4.8a.507.507,0,0,1,0,.954l-12.89,4.766a.526.526,0,0,1-.363,0Z" transform="translate(198.5 941.007)" fill="#fff"/>
      <path id="パス_10048" data-name="パス 10048" d="M1144.276,638.016a.507.507,0,0,1-.182-.034l-12.859-4.932a.531.531,0,0,1,0-.989l5.645-2.1a.511.511,0,0,1,.663.313.53.53,0,0,1-.306.677l-4.341,1.615,11.376,4.364,11.405-4.364-4.359-1.637a.53.53,0,0,1-.306-.677.509.509,0,0,1,.663-.313l5.665,2.127a.531.531,0,0,1,0,.989l-12.889,4.932A.509.509,0,0,1,1144.276,638.016Z" transform="translate(-932.401 318.005)" fill="#fff"/>
    </g>
  </g>
</svg>
