<svg xmlns="http://www.w3.org/2000/svg" xmlns:xlink="http://www.w3.org/1999/xlink" width="28" height="28" viewBox="0 0 28 28">
  <defs>
    <clipPath id="clip-path">
      <rect id="長方形_549" data-name="長方形 549" width="28" height="28" fill="#fff"/>
    </clipPath>
  </defs>
  <g id="グループ_5094" data-name="グループ 5094" clip-path="url(#clip-path)">
    <g id="グループ_10344" data-name="グループ 10344" transform="translate(-102.677 -1103.019)">
      <path id="パス_30291" data-name="パス 30291" d="M5131.087,1262.071c-.009.236-.025.473-.053.709-.008.051-.013.1-.02.152h-4.653l-1.346,4.007a.439.439,0,0,1-.414.294.432.432,0,0,1-.413-.294l-1.349-4.007H5121.7a.429.429,0,0,1-.421-.326l-1.03-4.113-1.026,4.113a.431.431,0,0,1-.419.326h-5.09c-.037-.285-.062-.572-.073-.86h4.821l1.365-5.409a.438.438,0,0,1,.423-.325.43.43,0,0,1,.421.325l1.368,5.409h1.11a.431.431,0,0,1,.411.294l1.039,3.076,1.037-3.076a.431.431,0,0,1,.41-.294Z" transform="translate(-5009.25 -148.098)" fill="#fff"/>
      <path id="パス_30290" data-name="パス 30290" d="M5094.653,1146.076a.644.644,0,0,0-.048-.048l-8.286-8.288.043-.067a9.369,9.369,0,0,0,1.433-4.015c.029-.261.048-.523.054-.786a9.359,9.359,0,0,0-.247-2.4,9.334,9.334,0,0,0-18.417,2.4c.008.262.026.524.056.786a9.42,9.42,0,0,0,.3,1.52,9.331,9.331,0,0,0,7.9,6.71,9.469,9.469,0,0,0,1.094.063,9.225,9.225,0,0,0,5.043-1.5l.067-.043,1.261,1.262,7.027,7.026a1.888,1.888,0,1,0,2.716-2.624Zm-16.123-4.922a8.711,8.711,0,0,1-1-.058,8.555,8.555,0,0,1-6.924-5.27,8.21,8.21,0,0,1-.325-.952,8.534,8.534,0,0,1-.242-1.217c-.033-.261-.052-.523-.061-.786a8.545,8.545,0,0,1,8.527-8.805,8.671,8.671,0,0,1,1,.058,8.529,8.529,0,0,1,7.553,8.747c-.007.241-.025.482-.053.723,0,.021,0,.042-.008.063A8.535,8.535,0,0,1,5078.531,1141.154Zm5.774-1.216.084-.068a9.373,9.373,0,0,0,1.389-1.391l.07-.085Zm9.736,8.2a1.113,1.113,0,0,1-1.541,0l1.542-1.544A1.039,1.039,0,0,1,5094.041,1148.136Z" transform="translate(-4965.505 -19.257)" fill="#fff"/>
      <path id="パス_30290_-_アウトライン" data-name="パス 30290 - アウトライン" d="M5093.295,1149.626a2.219,2.219,0,0,1-1.607-.681l-8.086-8.087a9.572,9.572,0,0,1-5.062,1.443,9.735,9.735,0,0,1-5.271-1.546,9.623,9.623,0,0,1-3.733-4.516,9.736,9.736,0,0,1-.642-2.541c-.03-.27-.05-.544-.058-.815a9.685,9.685,0,1,1,19.364,0c-.006.26-.025.534-.057.815a9.7,9.7,0,0,1-1.378,3.994l8.081,8.083c.021.02.042.04.063.063a2.238,2.238,0,0,1-1.614,3.79Zm-9.6-9.662,8.493,8.493a1.538,1.538,0,0,0,2.175.038,1.542,1.542,0,0,0,.037-2.175l-.007-.008-.022-.022-.014-.013-8.486-8.488.2-.3a9.016,9.016,0,0,0,1.379-3.864c.029-.26.046-.514.052-.755a9.015,9.015,0,0,0-.237-2.306,8.984,8.984,0,0,0-17.727,2.3c.007.251.025.506.053.757a9.1,9.1,0,0,0,.289,1.463,8.958,8.958,0,0,0,3.77,5.084,9.034,9.034,0,0,0,4.891,1.435,8.873,8.873,0,0,0,4.853-1.44Zm9.575,8.831a1.452,1.452,0,0,1-1.013-.408l-.257-.247,2.041-2.043.248.246a1.621,1.621,0,0,1,.458,1.119,1.287,1.287,0,0,1-.471.933A1.455,1.455,0,0,1,5093.271,1148.795Zm-.208-.729a.766.766,0,0,0,.736-.183l.013-.012a.594.594,0,0,0,.235-.434.73.73,0,0,0-.06-.3Zm-14.533-6.562a9.056,9.056,0,0,1-1.036-.06,8.9,8.9,0,0,1-7.208-5.486,8.516,8.516,0,0,1-.338-.991,8.927,8.927,0,0,1-.252-1.266c-.033-.261-.054-.529-.063-.818a8.894,8.894,0,0,1,8.876-9.167,9.014,9.014,0,0,1,1.036.06,8.879,8.879,0,0,1,7.862,9.106c-.006.237-.025.489-.054.749,0,.025-.006.05-.01.075A8.9,8.9,0,0,1,5078.531,1141.5Zm-.021-17.087a8.193,8.193,0,0,0-8.177,8.445c.009.266.028.513.058.753a8.267,8.267,0,0,0,.232,1.167,7.785,7.785,0,0,0,.311.912,8.205,8.205,0,0,0,6.642,5.056,8.356,8.356,0,0,0,.955.055,8.2,8.2,0,0,0,8.12-7.189v-.013a.356.356,0,0,0,.005-.039v-.007c.027-.241.044-.474.05-.693a8.185,8.185,0,0,0-7.244-8.39A8.32,8.32,0,0,0,5078.51,1124.417Zm6.015,15.794-.468-.519,1.543-1.544.517.471-.07.085a9.7,9.7,0,0,1-1.437,1.439Z" transform="translate(-4965.505 -19.257)" fill="#fff"/>
      <path id="パス_30292" data-name="パス 30292" d="M121.9,1120.421l-1.913,1.966,7.623,7.212,1.2-.2.633-1.461-.633-.7Z" fill="#fff"/>
    </g>
  </g>
</svg>
