<svg xmlns="http://www.w3.org/2000/svg" xmlns:xlink="http://www.w3.org/1999/xlink" width="28" height="28" viewBox="0 0 28 28">
  <defs>
    <clipPath id="clip-path">
      <rect id="長方形_549" data-name="長方形 549" width="28" height="28" fill="#fff"/>
    </clipPath>
  </defs>
  <g id="グループ_5094" data-name="グループ 5094" clip-path="url(#clip-path)">
    <g id="グループ_10334" data-name="グループ 10334" transform="translate(2323.353 -1759.391)">
      <path id="前面オブジェクトで型抜き_2" data-name="前面オブジェクトで型抜き 2" d="M11.342,18.623H4.327v-1.04l0-.01c-.2-.4-1.178-2.393-1.178-2.534a15.559,15.559,0,0,1-2.083-3.277A8.589,8.589,0,0,1,.515,4.846a8.082,8.082,0,0,1,2.863-3.81A7.341,7.341,0,0,1,7.539,0a24.375,24.375,0,0,1,3.426.292,4.134,4.134,0,0,1,2.923,1.891A8.916,8.916,0,0,1,15.144,5.6a19.71,19.71,0,0,1,.2,4.743l-3.229,5.248-.77,1.989v1.039ZM3.361,6.781a1.157,1.157,0,0,0-.782.307,1.256,1.256,0,0,0-.105,1.729l3.121,3.669a1.155,1.155,0,0,0,1.772,0l6-7.013a1.259,1.259,0,0,0-.1-1.73,1.154,1.154,0,0,0-1.67.1L6.484,9.825,4.247,7.2A1.164,1.164,0,0,0,3.361,6.781Z" transform="translate(-2317.279 1760.899)" fill="#fff"/>
      <path id="パス_30269" data-name="パス 30269" d="M14.52,55.8H7.388a.965.965,0,0,1-.956-.906A5.831,5.831,0,0,0,4.8,51.113c-.386-.511-.823-1.091-1.32-1.838A9.28,9.28,0,0,1,2.1,42.469,8.958,8.958,0,0,1,16.74,37.177a9.235,9.235,0,0,1,1.637,12.145c-.476.705-.894,1.26-1.263,1.75a13.943,13.943,0,0,0-1.007,1.448,5.16,5.16,0,0,0-.631,2.369.965.965,0,0,1-.957.909M8.244,53.852H13.66a6.518,6.518,0,0,1,.785-2.3,15.482,15.482,0,0,1,1.146-1.66c.354-.471.757-1,1.2-1.668a7.268,7.268,0,0,0-1.29-9.557,7.05,7.05,0,0,0-11.522,4.15,7.321,7.321,0,0,0,1.089,5.371c.465.7.884,1.255,1.254,1.745a7.989,7.989,0,0,1,1.919,3.921" transform="translate(-2320.299 1724.356)" fill="#fff"/>
      <path id="パス_30270" data-name="パス 30270" d="M32.814,132.147h-5.98a.694.694,0,0,1,0-1.388h5.98a.694.694,0,0,1,0,1.388" transform="translate(-2339.177 1650.009)" fill="#fff"/>
      <path id="パス_30271" data-name="パス 30271" d="M34.365,141.158H29.6a.694.694,0,0,1,0-1.388h4.76a.694.694,0,0,1,0,1.388" transform="translate(-2341.339 1643.011)" fill="#fff"/>
      <path id="パス_30272" data-name="パス 30272" d="M39.7,150.472c0,.464-.554.84-1.237.84s-1.237-.376-1.237-.84Z" transform="translate(-2347.814 1634.699)" fill="#fff"/>
      <path id="パス_30273" data-name="パス 30273" d="M37.135,150.372c-.9,0-1.611-.536-1.611-1.22a.377.377,0,0,1,.374-.379h2.474a.376.376,0,0,1,.374.379c0,.684-.707,1.22-1.611,1.22m-.466-.84a1.486,1.486,0,0,0,.931,0Z" transform="translate(-2346.489 1636.019)" fill="#fff"/>
    </g>
  </g>
</svg>
