<svg xmlns="http://www.w3.org/2000/svg" xmlns:xlink="http://www.w3.org/1999/xlink" width="28" height="28" viewBox="0 0 28 28">
  <defs>
    <clipPath id="clip-path">
      <rect id="長方形_549" data-name="長方形 549" width="28" height="28" fill="#fff"/>
    </clipPath>
  </defs>
  <g id="グループ_5094" data-name="グループ 5094" clip-path="url(#clip-path)">
    <path id="合体_16" data-name="合体 16" d="M4.607,28a1.475,1.475,0,0,1-1.413-1.16.442.442,0,0,1-.007-.079l.007-11.177a.435.435,0,0,1,.028-.154L3.35,12.26l-.658,3.222a2.091,2.091,0,0,1-.661,1.3,1.191,1.191,0,0,1-.743.251,1.413,1.413,0,0,1-.233-.02,1.177,1.177,0,0,1-.823-.523A1.991,1.991,0,0,1,.05,15.1,39.46,39.46,0,0,1,.8,11.014c.106-.483.2-.923.281-1.311.455-2.153.662-3.135,1.537-3.359.574-.147,1.789-.429,2.347-.558l.021-.191A3.032,3.032,0,0,1,3.547,3.006,2.973,2.973,0,0,1,6.48,0,2.973,2.973,0,0,1,9.412,3.006a3.042,3.042,0,0,1-1.4,2.565l.024.214c.558.129,1.773.411,2.347.558.875.224,1.083,1.207,1.537,3.359.082.388.175.829.281,1.311a39.437,39.437,0,0,1,.752,4.09,1.991,1.991,0,0,1-.182,1.388,1.177,1.177,0,0,1-.823.523,1.222,1.222,0,0,1-.976-.232,2.091,2.091,0,0,1-.661-1.3l-.494-2.417,0-.008v9.32l0,4.381a.435.435,0,0,1-.007.079A1.475,1.475,0,0,1,8.394,28l-.1,0a1.594,1.594,0,0,1-1.485-1.052.437.437,0,0,1-.023-.113l-.272-7.953-.058.624-.251,7.33a.443.443,0,0,1-.023.113A1.593,1.593,0,0,1,4.706,28Z" transform="translate(8 0)" fill="#fff"/>
  </g>
</svg>
