<svg id="グループ_5216" data-name="グループ 5216" xmlns="http://www.w3.org/2000/svg" width="43" height="25" viewBox="0 0 43 25">
  <g id="グループ_5146" data-name="グループ 5146" transform="translate(-471.007 -957.179)">
    <path id="パス_21" data-name="パス 21" d="M30.615,29.908q-.654-.273-1.483-.558t-1.782-.53v-4h2.258q.9,0,.9-.816t-.9-.816H27.35v-4.08h2.258q.9,0,.9-.816t-.9-.815H16.851q-.9,0-.9.815t.9.816h7.018v4.08H16.851q-.9,0-.9.816t.9.816h7.018v3.346c-.562-.054-1.089-.082-1.578-.082a7.607,7.607,0,0,0-4.513,1.178,3.574,3.574,0,0,0-1.47,3.063,4.119,4.119,0,0,0,.774,2.33,5.243,5.243,0,0,0,2.1,1.687,6.994,6.994,0,0,0,2.979.611,5.708,5.708,0,0,0,3.835-1.169,4.243,4.243,0,0,0,1.36-3.4V30.67c.844.305,1.925,1.157,2.845.78.355-.145.909-.515.909-.943a.638.638,0,0,0-.489-.6m-5.964,2.606A10.652,10.652,0,0,1,22.1,35.436h-.009a10.652,10.652,0,0,1-2.552-2.922c-.716-1.521,1.194-2.831,2.552-1.308H22.1c1.358-1.523,3.268-.213,2.552,1.308" transform="translate(472.637 942.702)" fill="#eb9a9a"/>
    <path id="パス_26" data-name="パス 26" d="M13.95,17.545c.852-.025,1.693.471,1.533,1.4a40.486,40.486,0,0,0-.965,9.821,29.352,29.352,0,0,0,.78,5.7c.216.966-.647,1.534-1.5,1.559a1.392,1.392,0,0,1-1.523-1.041,32.462,32.462,0,0,1-.79-6.061,44.83,44.83,0,0,1,.976-10.339,1.521,1.521,0,0,1,1.487-1.04" transform="translate(470.538 942.734)" fill="#eb9a9a"/>
  </g>
  <rect id="長方形_568" data-name="長方形 568" width="43" height="25" fill="none"/>
</svg>
