<svg xmlns="http://www.w3.org/2000/svg" width="105.911" height="40" viewBox="0 0 105.911 40">
  <g id="グループ_5156" data-name="グループ 5156" transform="translate(-101.921 -679.93)">
    <path id="パス_9" data-name="パス 9" d="M28.964,28.509q-.58-.242-1.316-.5t-1.582-.47V23.994h2q.8,0,.8-.724t-.8-.724h-2V18.925h2q.8,0,.8-.724t-.8-.723H16.749q-.8,0-.8.723t.8.724h6.228v3.621H16.749q-.8,0-.8.724t.8.724h6.228v2.969c-.5-.048-.967-.073-1.4-.073a6.751,6.751,0,0,0-4.005,1.045,3.172,3.172,0,0,0-1.3,2.718,3.655,3.655,0,0,0,.687,2.068,4.652,4.652,0,0,0,1.859,1.5,6.207,6.207,0,0,0,2.644.542,5.065,5.065,0,0,0,3.4-1.037,3.765,3.765,0,0,0,1.207-3.018V29.185c.749.271,1.708,1.027,2.525.692.315-.129.807-.457.807-.836a.566.566,0,0,0-.434-.532m-5.293,2.313a9.453,9.453,0,0,1-2.265,2.593H21.4a9.453,9.453,0,0,1-2.265-2.593c-.636-1.35,1.059-2.512,2.265-1.161h.008c1.205-1.351,2.9-.189,2.265,1.161" transform="translate(106.753 685.155)" fill="#fff"/>
    <path id="パス_10" data-name="パス 10" d="M34.287,32.522q-.9.121-.894-.8c0-.371.25-.588.749-.651q4.562-.508,4.563-3.887a3.434,3.434,0,0,0-.786-2.391,2.734,2.734,0,0,0-2.137-.869,17.161,17.161,0,0,0-2.257.2q-1.436.207-3.222.568a.71.71,0,0,1-.218.025.853.853,0,0,1-.8-.532,1.23,1.23,0,0,0-.06-.181.468.468,0,0,1-.036-.181c0-.289.21-.483.628-.58q1.812-.362,3.4-.567a21.07,21.07,0,0,1,2.559-.206,7.552,7.552,0,0,1,3.079.6,5.237,5.237,0,0,1,2.149,1.666,4,4,0,0,1,.784,2.439,3.93,3.93,0,0,1-.929,2.558,6.648,6.648,0,0,1-2.62,1.848,13.5,13.5,0,0,1-3.958.929" transform="translate(110.764 686.671)" fill="#fff"/>
    <path id="パス_11" data-name="パス 11" d="M63.353,34.7a1.617,1.617,0,0,1-.258.063,1.08,1.08,0,0,1-1.006-.321.824.824,0,0,1-.141-.766c.206-.62,1.152-.809,1.642-1.126a9.824,9.824,0,0,0,2.081-1.76,6.657,6.657,0,0,0,1.665-4.4,30.306,30.306,0,0,0-.211-4.02c-.137-1.033-.9-3.891.035-4.644a1.951,1.951,0,0,1,2.767,1.113q.145.911.245,1.962.133,1.413.193,2.848t.06,2.74a6.833,6.833,0,0,1-1.75,4.586,18.4,18.4,0,0,1-4.576,3.35,3.517,3.517,0,0,1-.747.375" transform="translate(120.676 685.151)" fill="#fff"/>
    <path id="パス_12" data-name="パス 12" d="M62.919,27.064c.556-.1,1.266.429.963,1.037a1,1,0,0,1-.636.479,13.023,13.023,0,0,1-2.747.565,1.517,1.517,0,0,1-1.067-.319c-.618-.532-.5-1.491-.593-2.222a17.072,17.072,0,0,1-.121-2.076,23.929,23.929,0,0,1,.218-3.1,22.048,22.048,0,0,1,.334-2.864,2.1,2.1,0,0,1,.783-1.2,1.873,1.873,0,0,1,1.36-.267,1.381,1.381,0,0,1,.968.571,1.661,1.661,0,0,1,.064,1.307,21.615,21.615,0,0,0-.636,5.68c0,.468.016.917.048,1.351s.081.846.145,1.233l.917-.169" transform="translate(119.709 685.03)" fill="#fff"/>
    <path id="パス_13" data-name="パス 13" d="M43.827,27.659a5.685,5.685,0,0,1,.228-1.558,1.147,1.147,0,0,1,1.165-.831,1.042,1.042,0,0,1,1.143.956,1.623,1.623,0,0,1-.042.291,4.42,4.42,0,0,0-.125,1.038c0,1.309.707,2.017,4.594,2.017a28.453,28.453,0,0,0,5.673-.6,2.082,2.082,0,0,1,.332-.042,1.1,1.1,0,0,1,1.1,1.143,1.214,1.214,0,0,1-1.019,1.184,27.3,27.3,0,0,1-6.089.645c-5.01,0-6.963-1.412-6.963-4.24" transform="translate(115.198 687.516)" fill="#fff"/>
    <path id="パス_14" data-name="パス 14" d="M76.326,10.832a.58.58,0,0,1-.309-.089L70.862,7.5l.619-.986,4.674,2.936L82.646-.329l.97.644L76.811,10.571A.582.582,0,0,1,76.326,10.832Z" transform="translate(124.118 680.52)" fill="#fff"/>
    <path id="パス_15" data-name="パス 15" d="M70.208,6.07a.582.582,0,0,1-.242-.053L65.527,3.99a.582.582,0,0,1,.122-1.1L84.088-.988a.582.582,0,0,1,.675.4.582.582,0,0,1-.329.71l-14,5.906A.582.582,0,0,1,70.208,6.07Zm-2.588-2.4,2.6,1.186L78.409,1.4Z" transform="translate(123.041 680.93)" fill="#fff"/>
    <path id="パス_16" data-name="パス 16" d="M69.868,6.272,71.05,11.55,72.2,7.519,84.161.5Z" transform="translate(123.087 680.012)" fill="#fff"/>
    <path id="パス_17" data-name="パス 17" d="M70.775,9.918l3.233-2.724L71.928,5.887Z" transform="translate(123.362 681.644)" fill="#fff"/>
    <path id="パス_18" data-name="パス 18" d="M13.671,17.545c.756-.022,1.5.418,1.36,1.244a35.929,35.929,0,0,0-.856,8.715,26.048,26.048,0,0,0,.692,5.057c.192.857-.575,1.362-1.33,1.384a1.235,1.235,0,0,1-1.351-.924,28.807,28.807,0,0,1-.7-5.379,39.783,39.783,0,0,1,.866-9.175,1.349,1.349,0,0,1,1.32-.922" transform="translate(105.395 685.176)" fill="#fff"/>
    <path id="パス_19" data-name="パス 19" d="M43.876,9.639c3.355.3,2.365,4.754,1.562,6.872-.59,1.558-1.61,2.936-1.3,4.695a4.392,4.392,0,0,0,3.706,3.435c1.984.313,3.987-.528,5.788-1.259a59.359,59.359,0,0,0,6.616-3.231c4.723-2.644,9.214-5.678,13.919-8.352A1.077,1.077,0,0,0,73.077,9.94c-4.469,2.539-8.745,5.4-13.211,7.952a58.41,58.41,0,0,1-6.81,3.414c-1.762.719-4.87,2.251-6.39.366-1.14-1.416.38-3.3.9-4.723a12.861,12.861,0,0,0,.793-4.087c.05-2.92-1.48-5.1-4.48-5.375-1.379-.125-1.371,2.027,0,2.152" transform="translate(114.9 682.127)" fill="#fff"/>
    <path id="パス_20" data-name="パス 20" d="M53.169,6.685A101.029,101.029,0,0,0,26.507,11.5,89.857,89.857,0,0,0,.377,25.788c-1.094.847.439,2.36,1.522,1.522A86.521,86.521,0,0,1,27.582,13.405,99.334,99.334,0,0,1,53.169,8.837c1.377-.079,1.386-2.232,0-2.152" transform="translate(101.921 681.885)" fill="#fff"/>
  </g>
</svg>
