<svg xmlns="http://www.w3.org/2000/svg" xmlns:xlink="http://www.w3.org/1999/xlink" width="20.829" height="20.829" viewBox="0 0 20.829 20.829">
  <defs>
    <clipPath id="clip-path">
      <rect id="長方形_549" data-name="長方形 549" width="20.829" height="20.829" fill="#fff"/>
    </clipPath>
  </defs>
  <g id="グループ_5094" data-name="グループ 5094" clip-path="url(#clip-path)">
    <path id="前面オブジェクトで型抜き_1" data-name="前面オブジェクトで型抜き 1" d="M-139.655-991.256a10.351,10.351,0,0,1-3.906-.759,10.37,10.37,0,0,1-3.428-2.265,10.363,10.363,0,0,1-2.289-3.41,10.349,10.349,0,0,1-.785-4.193,10.345,10.345,0,0,1,3.16-7.261,10.367,10.367,0,0,1,7.258-2.941h.118a10.343,10.343,0,0,1,7.369,3.166,10.354,10.354,0,0,1,2.919,7.482v.032a5.011,5.011,0,0,1-1.674,3.6,4.9,4.9,0,0,1-3.3,1.266c-.153,0-.309-.007-.463-.021a10.672,10.672,0,0,1-1.6-.277,1.553,1.553,0,0,0-.375-.047,1.435,1.435,0,0,0-1.193.661,1.42,1.42,0,0,0,.053,1.676l.04.051a1.983,1.983,0,0,1,.253,2.071,1.979,1.979,0,0,1-1.732,1.158l-.124,0C-139.453-991.258-139.548-991.256-139.655-991.256Zm-5.417-8.864a2.112,2.112,0,0,0-2.11,2.11,2.112,2.112,0,0,0,2.11,2.109,2.112,2.112,0,0,0,2.11-2.109A2.112,2.112,0,0,0-145.072-1000.121Zm-.84-5.311a2.112,2.112,0,0,0-2.11,2.11,2.112,2.112,0,0,0,2.11,2.11,2.112,2.112,0,0,0,2.11-2.11A2.112,2.112,0,0,0-145.912-1005.431Zm12.622-.858a2.112,2.112,0,0,0-2.109,2.11,2.113,2.113,0,0,0,.286,1.063,2.119,2.119,0,0,0,1.822,1.047,2.111,2.111,0,0,0,1.738-.913,2.1,2.1,0,0,0,.334-.8.4.4,0,0,0-.063-.3.4.4,0,0,0-.26-.171.411.411,0,0,0-.078-.008.407.407,0,0,0-.4.33,1.287,1.287,0,0,1-.2.487,1.3,1.3,0,0,1-1.068.562,1.3,1.3,0,0,1-1.12-.643,1.293,1.293,0,0,1-.176-.652,1.3,1.3,0,0,1,1.3-1.3h.084a.405.405,0,0,0,.4-.388.409.409,0,0,0-.388-.426h-.032Zm-9.044-3.486a2.112,2.112,0,0,0-2.11,2.109,2.112,2.112,0,0,0,2.11,2.11,2.112,2.112,0,0,0,2.11-2.11A2.112,2.112,0,0,0-142.334-1009.775Zm5.263-.381a2.112,2.112,0,0,0-2.11,2.11,2.112,2.112,0,0,0,2.11,2.11,2.112,2.112,0,0,0,2.11-2.11A2.112,2.112,0,0,0-137.071-1010.156Zm-8,13.44a1.3,1.3,0,0,1-1.3-1.3,1.3,1.3,0,0,1,1.3-1.3,1.3,1.3,0,0,1,1.3,1.3A1.3,1.3,0,0,1-145.072-996.716Zm-.84-5.31a1.3,1.3,0,0,1-1.3-1.3,1.3,1.3,0,0,1,1.3-1.3,1.3,1.3,0,0,1,1.3,1.3A1.3,1.3,0,0,1-145.912-1002.026Zm3.577-4.344a1.3,1.3,0,0,1-1.3-1.3,1.3,1.3,0,0,1,1.3-1.3,1.3,1.3,0,0,1,1.3,1.3A1.3,1.3,0,0,1-142.334-1006.37Zm5.263-.38a1.3,1.3,0,0,1-1.3-1.3,1.3,1.3,0,0,1,1.3-1.3,1.3,1.3,0,0,1,1.3,1.3A1.3,1.3,0,0,1-137.071-1006.75Z" transform="translate(150.065 1012.085)" fill="#fff"/>
  </g>
</svg>
