<svg id="グループ_5214" data-name="グループ 5214" xmlns="http://www.w3.org/2000/svg" width="43" height="25" viewBox="0 0 43 25">
  <g id="グループ_5143" data-name="グループ 5143" transform="translate(-628.65 -909.732)">
    <path id="パス_27" data-name="パス 27" d="M80.892,19.684a1.11,1.11,0,0,1-.6-.171l-8.9-5.592,1.2-1.906,7.97,5.007L91.709.224l1.877,1.242L81.831,19.18a1.127,1.127,0,0,1-.938.5" transform="translate(573.481 912.181)" fill="#eb9a9a"/>
    <path id="パス_28" data-name="パス 28" d="M74.978,12.451a1.139,1.139,0,0,1-.468-.1l-7.664-3.5a1.124,1.124,0,0,1,.236-2.124L98.927.023a1.135,1.135,0,0,1,1.305.765A1.129,1.129,0,0,1,99.6,2.163l-24.179,10.2a1.14,1.14,0,0,1-.439.088M70.889,8.223,75,10.1,87.948,4.633Z" transform="translate(566.97 911.901)" fill="#eb9a9a"/>
    <path id="パス_29" data-name="パス 29" d="M69.868,10.469l2.041,9.116L73.9,12.622,94.553.5Z" transform="translate(571.573 912.526)" fill="#eb9a9a"/>
    <path id="パス_30" data-name="パス 30" d="M70.775,12.849l5.583-4.705L72.766,5.887Z" transform="translate(572.707 919.261)" fill="#eb9a9a"/>
  </g>
  <rect id="長方形_566" data-name="長方形 566" width="43" height="25" fill="none"/>
</svg>
