<svg xmlns="http://www.w3.org/2000/svg" width="35" height="35"><defs><clipPath id="a"><path data-name="長方形 3591" transform="translate(615 -268.506)" fill="#e22d2d" d="M0 0h35v35H0z"/></clipPath></defs><g data-name="マスクグループ 20" transform="translate(-615 268.506)" clip-path="url(#a)"><g data-name="グループ 10374" fill="#f28c74"><path data-name="パス 30302" d="M638.764-260.368c-3.6 0-5.236 2.075-6.763 2.075-1.528 0-3.166-2.075-6.764-2.075-8.65 0-9.917 13.192-8.706 17.227a3.639 3.639 0 0 0 5.975 1.528l3.329-2.852a3.749 3.749 0 0 1 2.4-1.219h7.538a3.75 3.75 0 0 1 2.4 1.219l3.329 2.852a3.638 3.638 0 0 0 5.974-1.528c1.205-4.038-.061-17.227-8.712-17.227Zm7.223 16.815a1.847 1.847 0 0 1-1.868 1.429 2.431 2.431 0 0 1-1.576-.581l-.021-.018-3.319-2.844a5.161 5.161 0 0 0-3.434-1.6h-7.538a5.162 5.162 0 0 0-3.434 1.6l-3.33 2.852-.01.009a2.431 2.431 0 0 1-1.576.581 1.848 1.848 0 0 1-1.869-1.429 15.875 15.875 0 0 1-.109-6 14.931 14.931 0 0 1 2.611-6.924 5.714 5.714 0 0 1 4.721-2.4 8.161 8.161 0 0 1 4.055 1.182 4.555 4.555 0 0 0 5.419 0 8.164 8.164 0 0 1 4.055-1.182 5.714 5.714 0 0 1 4.721 2.4 14.933 14.933 0 0 1 2.611 6.924 15.874 15.874 0 0 1-.109 5.998Z"/><path data-name="パス 30302 - アウトライン" d="M625.235-260.506a9.752 9.752 0 0 1 4.857 1.377 2.955 2.955 0 0 0 3.814 0 9.752 9.752 0 0 1 4.857-1.377 7.412 7.412 0 0 1 6.067 3.051 16.512 16.512 0 0 1 2.933 7.674 17.465 17.465 0 0 1-.159 6.675 3.6 3.6 0 0 1-1.389 1.973 3.677 3.677 0 0 1-2.1.627 4.137 4.137 0 0 1-2.719-1.01l-3.327-2.851a3.614 3.614 0 0 0-2.3-1.184h-7.538a3.612 3.612 0 0 0-2.3 1.183l-3.331 2.854a4.138 4.138 0 0 1-2.717 1.008 3.677 3.677 0 0 1-2.1-.627 3.6 3.6 0 0 1-1.39-1.973 17.466 17.466 0 0 1-.159-6.675 16.512 16.512 0 0 1 2.933-7.674 7.412 7.412 0 0 1 6.068-3.051ZM632-258.16a4.765 4.765 0 0 1-2.042-.73 9.5 9.5 0 0 0-4.723-1.345 7.14 7.14 0 0 0-5.842 2.943 16.248 16.248 0 0 0-2.879 7.549 17.2 17.2 0 0 0 .15 6.563 3.294 3.294 0 0 0 1.283 1.828 3.39 3.39 0 0 0 1.934.576 3.848 3.848 0 0 0 2.528-.938l3.331-2.854a3.928 3.928 0 0 1 2.491-1.253h7.538a3.929 3.929 0 0 1 2.493 1.254l3.327 2.851a3.847 3.847 0 0 0 2.529.94 3.224 3.224 0 0 0 3.216-2.4 17.2 17.2 0 0 0 .15-6.563 16.24 16.24 0 0 0-2.879-7.549 7.14 7.14 0 0 0-5.842-2.943 9.506 9.506 0 0 0-4.723 1.345 4.766 4.766 0 0 1-2.039.726Zm-6.765-.861a8.285 8.285 0 0 1 4.122 1.2 4.418 4.418 0 0 0 5.285 0 8.287 8.287 0 0 1 4.122-1.2 5.847 5.847 0 0 1 4.833 2.458 15.057 15.057 0 0 1 2.638 6.986 16.009 16.009 0 0 1-.113 6.058 1.979 1.979 0 0 1-2 1.527 2.58 2.58 0 0 1-1.672-.616l-.019-.016-3.319-2.844a5.036 5.036 0 0 0-3.34-1.569h-7.538a5.036 5.036 0 0 0-3.339 1.567l-3.337 2.859a2.577 2.577 0 0 1-1.673.618 1.981 1.981 0 0 1-2-1.527 16.021 16.021 0 0 1-.113-6.058 15.061 15.061 0 0 1 2.638-6.986 5.847 5.847 0 0 1 4.825-2.457Zm6.763 2.346a5.945 5.945 0 0 1-2.774-.909 8.044 8.044 0 0 0-3.99-1.166 5.581 5.581 0 0 0-4.609 2.35 14.8 14.8 0 0 0-2.584 6.861 15.75 15.75 0 0 0 .1 5.946 1.717 1.717 0 0 0 1.734 1.331 2.283 2.283 0 0 0 1.48-.545l.011-.011 3.329-2.852a5.285 5.285 0 0 1 3.528-1.637h7.538a5.284 5.284 0 0 1 3.529 1.639l3.338 2.86a2.285 2.285 0 0 0 1.483.546 1.715 1.715 0 0 0 1.732-1.331 15.733 15.733 0 0 0 .1-5.946 14.8 14.8 0 0 0-2.584-6.861 5.58 5.58 0 0 0-4.609-2.35 8.044 8.044 0 0 0-3.987 1.164 5.948 5.948 0 0 1-2.764.911Z"/><g data-name="グループ 10374" transform="translate(621.732 -256.958)"><path data-name="パス 30303" d="M7.106 4.634a.518.518 0 0 1-.528.508H4.903v1.612a.518.518 0 0 1-.528.508h-1.5a.518.518 0 0 1-.528-.508V5.142H.672a.518.518 0 0 1-.528-.508V3.186a.518.518 0 0 1 .528-.508h1.675V1.066a.518.518 0 0 1 .528-.508h1.5a.518.518 0 0 1 .528.508v1.612h1.675a.518.518 0 0 1 .528.508Z"/><path data-name="パス 30303 - アウトライン" d="M4.376 7.397h-1.5a.657.657 0 0 1-.668-.643V5.278H.673a.657.657 0 0 1-.668-.643V3.187a.657.657 0 0 1 .668-.643h1.535V1.068a.657.657 0 0 1 .668-.643h1.5a.657.657 0 0 1 .668.643v1.476h1.535a.657.657 0 0 1 .668.643v1.448a.657.657 0 0 1-.668.643H5.044v1.476a.657.657 0 0 1-.668.643ZM.668 2.814a.38.38 0 0 0-.387.372v1.448a.38.38 0 0 0 .387.372h1.816v1.747a.38.38 0 0 0 .387.372h1.5a.38.38 0 0 0 .387-.372V5.006h1.816a.38.38 0 0 0 .387-.372V3.186a.38.38 0 0 0-.387-.372H4.758V1.067a.38.38 0 0 0-.387-.372h-1.5a.38.38 0 0 0-.387.372v1.747Z"/><ellipse data-name="楕円形 728" cx="1.721" cy="1.656" rx="1.721" ry="1.656" transform="translate(13.843 4.785)"/><path data-name="楕円形 728 - アウトライン" d="M15.564 4.65a1.829 1.829 0 0 1 1.862 1.791 1.829 1.829 0 0 1-1.862 1.791 1.829 1.829 0 0 1-1.861-1.791 1.829 1.829 0 0 1 1.861-1.791Zm0 3.311a1.553 1.553 0 0 0 1.58-1.52 1.553 1.553 0 0 0-1.58-1.52 1.553 1.553 0 0 0-1.58 1.52 1.553 1.553 0 0 0 1.58 1.52Z"/><ellipse data-name="楕円形 729" cx="1.721" cy="1.656" rx="1.721" ry="1.656" transform="translate(13.843 .135)"/><path data-name="楕円形 729 - アウトライン" d="M15.564 0a1.829 1.829 0 0 1 1.862 1.791 1.829 1.829 0 0 1-1.862 1.791 1.829 1.829 0 0 1-1.861-1.791A1.829 1.829 0 0 1 15.564 0Zm0 3.311a1.553 1.553 0 0 0 1.58-1.52 1.553 1.553 0 0 0-1.58-1.52 1.553 1.553 0 0 0-1.58 1.52 1.553 1.553 0 0 0 1.58 1.52Z"/><ellipse data-name="楕円形 730" cx="1.721" cy="1.656" rx="1.721" ry="1.656" transform="translate(18.426 2.46)"/><path data-name="楕円形 730 - アウトライン" d="M20.146 2.325a1.829 1.829 0 0 1 1.862 1.791 1.829 1.829 0 0 1-1.862 1.791 1.829 1.829 0 0 1-1.861-1.791 1.829 1.829 0 0 1 1.861-1.791Zm0 3.311a1.553 1.553 0 0 0 1.58-1.52 1.553 1.553 0 0 0-1.58-1.52 1.553 1.553 0 0 0-1.58 1.52 1.553 1.553 0 0 0 1.58 1.52Z"/></g></g></g></svg>